<svg width="366" height="177" viewBox="0 0 366 177" fill="none" xmlns="http://www.w3.org/2000/svg">
<path d="M144.832 159V118.854V116.335C144.832 112.69 146.254 109.188 148.795 106.575L244.409 8.24034C247.044 5.52944 250.665 4 254.446 4H279.202C286.934 4 293.202 10.268 293.202 18V72.0388C293.202 79.7708 299.47 86.0388 307.202 86.0388H347.362C355.094 86.0388 361.362 92.3069 361.362 100.039V133.607V159C361.362 166.732 355.094 173 347.362 173H310.667C302.935 173 296.667 166.732 296.667 159V117.236C296.667 113.599 293.719 110.65 290.082 110.65C288.377 110.65 286.739 111.311 285.512 112.494L226.796 169.081C224.187 171.595 220.705 173 217.081 173H158.832C151.1 173 144.832 166.732 144.832 159Z" fill="#015763" stroke="white" stroke-width="8"/>
<path d="M4 159V118.854V116.473C4 112.746 5.48624 109.173 8.12946 106.545L107.18 8.07163C109.803 5.46379 113.352 4 117.05 4H143.486C151.218 4 157.486 10.268 157.486 18V72.0388C157.486 79.7708 163.754 86.0388 171.486 86.0388H201.25C208.982 86.0388 215.25 92.3069 215.25 100.039V129.519V159C215.25 166.732 208.982 173 201.25 173H158.283C150.551 173 144.283 166.732 144.283 159V121.166C144.283 115.359 139.575 110.65 133.767 110.65C130.989 110.65 128.324 111.75 126.353 113.709L70.8103 168.928C68.1872 171.536 64.6387 173 60.9398 173H18C10.268 173 4 166.732 4 159Z" fill="#015763" stroke="white" stroke-width="8"/>
</svg>
