<svg width="824" height="177" viewBox="0 0 824 177" fill="none" xmlns="http://www.w3.org/2000/svg">
<path d="M145.398 159V118.854V116.335C145.398 112.69 146.82 109.188 149.361 106.575L244.975 8.24034C247.611 5.52944 251.231 4 255.012 4H279.769C287.501 4 293.769 10.268 293.769 18V72.0388C293.769 79.7708 300.037 86.0388 307.769 86.0388H347.929C355.661 86.0388 361.929 92.3069 361.929 100.039V133.607V159C361.929 166.732 355.661 173 347.929 173H311.233C303.501 173 297.233 166.732 297.233 159V117.236C297.233 113.599 294.285 110.65 290.648 110.65C288.944 110.65 287.305 111.311 286.078 112.494L227.363 169.081C224.754 171.595 221.271 173 217.648 173H159.398C151.666 173 145.398 166.732 145.398 159Z" fill="#015763" stroke="white" stroke-width="8"/>
<path d="M4.56641 159V118.854V116.473C4.56641 112.746 6.05265 109.173 8.69586 106.545L107.746 8.07163C110.369 5.46379 113.918 4 117.617 4H144.053C151.785 4 158.053 10.268 158.053 18V72.0388C158.053 79.7708 164.321 86.0388 172.053 86.0388H201.816C209.548 86.0388 215.816 92.3069 215.816 100.039V129.519V159C215.816 166.732 209.548 173 201.816 173H158.85C151.118 173 144.85 166.732 144.85 159V121.166C144.85 115.359 140.142 110.65 134.334 110.65C131.556 110.65 128.89 111.75 126.92 113.709L71.3767 168.928C68.7536 171.536 65.2051 173 61.5062 173H18.5664C10.8344 173 4.56641 166.732 4.56641 159Z" fill="#015763" stroke="white" stroke-width="8"/>
<path d="M405.795 135V51H415.635L453.315 114.48H448.035L485.235 51H495.075L495.195 135H483.675L483.555 69.12H486.315L453.195 124.8H447.675L414.315 69.12H417.315V135H405.795ZM555.205 135.96C544.165 135.96 535.485 132.8 529.165 126.48C522.845 120.16 519.685 110.92 519.685 98.76V51H531.685V98.28C531.685 107.64 533.725 114.48 537.805 118.8C541.965 123.12 547.805 125.28 555.325 125.28C562.925 125.28 568.765 123.12 572.845 118.8C577.005 114.48 579.085 107.64 579.085 98.28V51H590.725V98.76C590.725 110.92 587.565 120.16 581.245 126.48C575.005 132.8 566.325 135.96 555.205 135.96ZM615.327 135V51H648.087C655.447 51 661.727 52.16 666.927 54.48C672.127 56.8 676.127 60.16 678.927 64.56C681.727 68.96 683.127 74.2 683.127 80.28C683.127 86.36 681.727 91.6 678.927 96C676.127 100.32 672.127 103.64 666.927 105.96C661.727 108.28 655.447 109.44 648.087 109.44H621.927L627.327 103.92V135H615.327ZM671.487 135L650.127 104.52H662.967L684.567 135H671.487ZM627.327 105.12L621.927 99.24H647.727C655.407 99.24 661.207 97.6 665.127 94.32C669.127 90.96 671.127 86.28 671.127 80.28C671.127 74.28 669.127 69.64 665.127 66.36C661.207 63.08 655.407 61.44 647.727 61.44H621.927L627.327 55.44V105.12ZM689.794 135L727.834 51H739.714L777.874 135H765.274L731.314 57.72H736.114L702.154 135H689.794ZM705.994 114L709.234 104.4H756.514L759.994 114H705.994Z" fill="#092B36"/>
<line x1="799.515" y1="90.6365" x2="817.515" y2="132.636" stroke="#092B36" stroke-width="12"/>
<circle cx="788.5" cy="63.5" r="8.5" fill="#092B36"/>
</svg>
